<svg width="40" height="40" viewBox="0 0 40 40" fill="none" xmlns="http://www.w3.org/2000/svg">
<rect width="40" height="40" rx="10" fill="url(#paint0_linear_48_6)"/>
<path d="M21.8782 9.66208C21.9218 9.35123 21.8586 9.03543 21.6979 8.76054C21.5372 8.48566 21.2872 8.26601 20.9843 8.13349C20.6728 7.99636 20.3206 7.9637 19.9865 8.04099C19.6524 8.11828 19.3568 8.30082 19.1489 8.5581L9.3382 20.3681C9.16014 20.5832 9.04743 20.8396 9.01201 21.1099C8.9766 21.3803 9.01981 21.6546 9.13706 21.9037C9.35329 22.3673 9.85363 22.7777 10.54 22.7777H18.9402L18.1231 29.3379C18.0795 29.6488 18.1426 29.9646 18.3034 30.2395C18.4641 30.5143 18.7141 30.734 19.0169 30.8665C19.3284 31.0036 19.6807 31.0363 20.0147 30.959C20.3488 30.8817 20.6445 30.6992 20.8523 30.4419L30.6618 18.6319C30.8399 18.4168 30.9526 18.1604 30.988 17.8901C31.0234 17.6197 30.9802 17.3454 30.8629 17.0963C30.7455 16.838 30.55 16.6177 30.3007 16.4624C30.0515 16.3071 29.7592 16.2237 29.46 16.2223H21.0598L21.8782 9.66208Z" fill="white"/>
<path d="M11.8333 25.6667C11.6042 25.6667 11.4081 25.5851 11.245 25.4221C11.0819 25.259 11.0003 25.0628 11 24.8333C10.9997 24.6039 11.0814 24.4078 11.245 24.245C11.4086 24.0822 11.6047 24.0006 11.8333 24C12.0619 23.9994 12.2582 24.0811 12.4221 24.245C12.586 24.4089 12.6675 24.605 12.6667 24.8333C12.6658 25.0617 12.5843 25.2579 12.4221 25.4221C12.2599 25.5863 12.0636 25.6678 11.8333 25.6667ZM14.3333 25.6667C14.1042 25.6667 13.9081 25.5851 13.745 25.4221C13.5819 25.259 13.5003 25.0628 13.5 24.8333C13.4997 24.6039 13.5814 24.4078 13.745 24.245C13.9086 24.0822 14.1047 24.0006 14.3333 24C14.5619 23.9994 14.7582 24.0811 14.9221 24.245C15.086 24.4089 15.1675 24.605 15.1667 24.8333C15.1658 25.0617 15.0843 25.2579 14.9221 25.4221C14.7599 25.5863 14.5636 25.6678 14.3333 25.6667ZM16.8333 25.6667C16.6042 25.6667 16.4081 25.5851 16.245 25.4221C16.0819 25.259 16.0003 25.0628 16 24.8333C15.9997 24.6039 16.0814 24.4078 16.245 24.245C16.4086 24.0822 16.6047 24.0006 16.8333 24C17.0619 23.9994 17.2582 24.0811 17.4221 24.245C17.586 24.4089 17.6675 24.605 17.6667 24.8333C17.6658 25.0617 17.5843 25.2579 17.4221 25.4221C17.2599 25.5863 17.0636 25.6678 16.8333 25.6667Z" fill="white"/>
<defs>
<linearGradient id="paint0_linear_48_6" x1="40" y1="20" x2="0" y2="20" gradientUnits="userSpaceOnUse">
<stop stop-color="#155DFC"/>
<stop offset="1" stop-color="#4F39F6"/>
</linearGradient>
</defs>
</svg>
